<svg width="369" height="438" viewBox="0 0 369 438" fill="none" xmlns="http://www.w3.org/2000/svg">
<path d="M259.553 209.781L290.816 132.96C304.623 99.0329 288.426 60.276 254.711 46.5553C220.997 32.8346 182.339 49.2676 168.532 83.1945C168.523 83.2168 168.525 83.2437 168.521 83.2548L137.284 160.009C105.934 152.249 72.6748 168.627 60.0812 199.572L33.2534 265.494C25.3636 284.881 34.6256 307.03 53.8784 314.866C73.1089 322.692 95.1333 313.353 103.083 294.043C103.097 294.009 103.126 293.969 103.14 293.935L105.748 287.525L108.37 383.278C108.37 383.695 108.432 384.085 108.49 384.486C108.506 384.544 108.494 384.605 108.505 384.674C108.596 385.219 108.76 385.741 108.945 386.246C108.985 386.405 109.06 386.54 109.126 386.697C109.285 387.074 109.476 387.438 109.682 387.795C109.764 387.946 109.839 388.081 109.941 388.213C110.236 388.672 110.574 389.122 110.968 389.529C110.979 389.534 110.985 389.55 111.003 389.57C111.05 389.615 111.101 389.649 111.159 389.698C111.522 390.054 111.91 390.381 112.322 390.679C112.454 390.772 112.596 390.869 112.721 390.946C113.183 391.251 113.68 391.532 114.194 391.741C114.205 391.745 114.216 391.75 114.216 391.75C114.216 391.75 114.216 391.75 114.228 391.754C114.239 391.759 114.228 391.754 114.239 391.759C114.25 391.763 114.25 391.763 114.261 391.768C114.775 391.977 115.327 392.124 115.87 392.228C116.025 392.264 116.184 392.29 116.342 392.316C116.846 392.39 117.351 392.427 117.871 392.43C117.936 392.43 117.996 392.442 118.061 392.442C118.088 392.44 118.104 392.434 118.126 392.443C118.681 392.421 119.226 392.331 119.78 392.217C119.934 392.189 120.098 392.139 120.262 392.088C120.659 391.976 121.049 391.849 121.426 391.69C121.583 391.624 121.731 391.58 121.866 391.505C122.351 391.272 122.839 391.002 123.284 390.676C123.336 390.645 123.37 390.593 123.426 390.551C123.743 390.316 124.064 390.069 124.355 389.771L193.11 323.052L190.501 329.462C182.607 348.86 191.862 370.994 211.126 378.834C230.39 386.674 252.475 377.281 260.365 357.895L287.193 291.973C299.777 261.05 287.395 226.097 259.553 209.781ZM117.285 209.119C117.276 209.142 117.256 209.159 117.251 209.171L109.498 228.222C109.471 228.289 109.45 228.372 109.418 228.45L89.2438 278.023L89.2326 278.018L85.6514 286.818C81.711 296.501 70.6694 301.21 61.0319 297.288C51.4055 293.37 46.7791 282.284 50.7194 272.602L77.5472 206.68C86.1869 185.451 108.445 173.812 130.02 177.828L117.285 209.119ZM126.649 361.234L125.008 301.26C130.814 306.825 137.73 311.423 145.614 314.631C153.498 317.84 161.659 319.378 169.701 319.448L126.649 361.234ZM222.07 251.828L214.316 270.88C204.454 295.113 176.845 306.852 152.756 297.049C128.713 287.264 117.157 259.652 126.93 235.447L185.998 90.3025C186.003 90.2913 186.007 90.2802 186.012 90.269C195.892 66.0558 223.481 54.3344 247.558 64.133C271.646 73.9361 283.213 101.618 273.35 125.852L222.081 251.833L222.07 251.828ZM246.46 342.004L242.879 350.804C238.938 360.487 227.897 365.196 218.259 361.274C208.633 357.356 204.006 346.27 207.947 336.588L252.304 227.593C270.552 239.784 278.346 263.653 269.711 284.871L246.46 342.004Z" fill="black"/>
<path d="M233.436 97.9095C228.908 96.0987 223.696 98.4922 221.788 103.263L191.866 178.074C189.958 182.845 192.078 188.184 196.605 189.995C201.133 191.805 206.355 189.416 208.268 184.634L238.189 109.823C240.087 105.048 237.953 99.7161 233.436 97.9095Z" fill="black"/>
</svg>
