<svg width="369" height="438" viewBox="0 0 369 438" fill="none" xmlns="http://www.w3.org/2000/svg">
<path d="M244.915 299.179L243.397 300.63C237.48 306.305 230.63 310.746 223.059 313.827C215.487 316.909 207.484 318.513 199.285 318.582L197.185 318.604L243.156 363.21L244.915 299.179Z" fill="white"/>
<path d="M216.56 297.858C241.005 287.909 252.813 259.764 242.852 235.129L183.77 89.9507C173.724 65.2974 145.605 53.3622 121.104 63.3334C96.58 73.3138 84.806 101.51 94.845 126.179L153.869 271.211C163.919 295.876 192.047 307.834 216.56 297.858ZM135.14 97.7918C139.518 96.0103 144.539 98.1452 146.33 102.545L177.33 178.719C179.125 183.13 177.021 188.165 172.643 189.946C168.266 191.728 163.245 189.593 161.449 185.182L130.449 109.008C128.67 104.603 130.762 99.5734 135.14 97.7918ZM282.544 287.146L279.29 279.15L279.279 279.154L237.776 177.172L238.803 176.976C261.152 172.814 283.62 185.162 292.241 206.347L319.069 272.268C323.191 282.397 318.353 293.986 308.28 298.085C298.206 302.185 286.667 297.275 282.544 287.146ZM125.317 351.132L98.489 285.21C89.868 264.025 97.329 239.497 116.226 226.886L117.098 226.31L161.846 336.266C165.968 346.395 161.125 357.972 151.063 362.067C140.99 366.166 129.439 361.26 125.317 351.132Z" fill="white"/>
<path d="M109.447 209.781L78.184 132.96C64.377 99.0329 80.574 60.276 114.289 46.5553C148.003 32.8346 186.661 49.2676 200.468 83.1945C200.477 83.2168 200.475 83.2437 200.479 83.2548L231.716 160.009C263.066 152.249 296.325 168.627 308.919 199.572L335.747 265.494C343.636 284.881 334.374 307.03 315.122 314.866C295.891 322.692 273.867 313.353 265.917 294.043C265.903 294.009 265.874 293.969 265.86 293.935L263.252 287.525L260.63 383.278C260.63 383.695 260.568 384.085 260.51 384.486C260.494 384.544 260.506 384.605 260.495 384.674C260.404 385.219 260.24 385.741 260.055 386.246C260.015 386.405 259.94 386.54 259.874 386.697C259.715 387.074 259.524 387.438 259.318 387.795C259.236 387.946 259.161 388.081 259.059 388.213C258.764 388.672 258.426 389.122 258.032 389.529C258.021 389.534 258.015 389.55 257.997 389.57C257.95 389.615 257.899 389.649 257.841 389.698C257.478 390.054 257.09 390.381 256.678 390.679C256.546 390.772 256.404 390.869 256.279 390.946C255.817 391.251 255.32 391.532 254.806 391.741C254.795 391.745 254.784 391.75 254.784 391.75C254.784 391.75 254.784 391.75 254.772 391.754C254.761 391.759 254.772 391.754 254.761 391.759C254.75 391.763 254.75 391.763 254.739 391.768C254.225 391.977 253.673 392.124 253.13 392.228C252.975 392.264 252.816 392.29 252.658 392.316C252.154 392.39 251.649 392.427 251.129 392.43C251.064 392.43 251.004 392.442 250.939 392.442C250.912 392.44 250.896 392.434 250.874 392.443C250.319 392.421 249.774 392.331 249.22 392.217C249.066 392.189 248.902 392.139 248.738 392.088C248.341 391.976 247.951 391.849 247.574 391.69C247.417 391.624 247.269 391.58 247.134 391.505C246.649 391.272 246.161 391.002 245.716 390.676C245.664 390.645 245.63 390.593 245.574 390.551C245.257 390.316 244.936 390.069 244.645 389.771L175.89 323.052L178.499 329.462C186.393 348.86 177.138 370.994 157.874 378.834C138.61 386.674 116.525 377.281 108.635 357.895L81.807 291.973C69.223 261.05 81.605 226.097 109.447 209.781ZM251.715 209.119C251.724 209.142 251.744 209.159 251.749 209.171L259.502 228.222C259.529 228.289 259.55 228.372 259.582 228.45L279.756 278.023L279.767 278.018L283.349 286.818C287.289 296.501 298.331 301.21 307.968 297.288C317.594 293.37 322.221 282.284 318.281 272.602L291.453 206.68C282.813 185.451 260.555 173.812 238.98 177.828L251.715 209.119ZM242.351 361.234L243.992 301.26C238.186 306.825 231.27 311.423 223.386 314.631C215.502 317.84 207.341 319.378 199.299 319.448L242.351 361.234ZM146.93 251.828L154.684 270.88C164.546 295.113 192.155 306.852 216.244 297.049C240.287 287.264 251.843 259.652 242.07 235.447L183.002 90.3025C182.997 90.2913 182.993 90.2802 182.988 90.269C173.108 66.0558 145.519 54.3344 121.442 64.133C97.354 73.9361 85.787 101.618 95.65 125.852L146.919 251.833L146.93 251.828ZM122.54 342.004L126.121 350.804C130.062 360.487 141.103 365.196 150.741 361.274C160.367 357.356 164.994 346.27 161.053 336.588L116.696 227.593C98.448 239.784 90.654 263.653 99.289 284.871L122.54 342.004Z" fill="black"/>
<path d="M135.564 97.9095C140.092 96.0987 145.304 98.4922 147.212 103.263L177.134 178.074C179.042 182.845 176.922 188.184 172.395 189.995C167.867 191.805 162.645 189.416 160.732 184.634L130.811 109.823C128.913 105.048 131.047 99.7161 135.564 97.9095Z" fill="black"/>
</svg>
