<svg width="62" height="70" viewBox="0 0 62 70" fill="none" xmlns="http://www.w3.org/2000/svg">
<path d="M27.0036 42.1405L27.2942 42.2553C28.428 42.7056 29.6209 42.9334 30.8372 42.9334C32.0534 42.9334 33.2464 42.7056 34.3801 42.2553L34.6707 42.1405L30.8372 50.866L27.0036 42.1405Z" fill="#FF5757"/>
<path d="M30.8372 40.3681C26.9103 40.3681 23.7046 37.1517 23.6957 33.1979V9.87722C23.6974 5.91629 26.9031 2.69444 30.839 2.69444C34.7784 2.69444 37.9823 5.91987 37.9823 9.8826V33.18C37.9805 37.1427 34.7748 40.3681 30.8372 40.3681ZM30.8372 8.23042C30.134 8.23042 29.5617 8.80626 29.5617 9.51306V21.7492C29.5617 22.4578 30.134 23.0337 30.8372 23.0337C31.5404 23.0337 32.1126 22.4578 32.1126 21.7492V9.51306C32.1108 8.80626 31.5404 8.23042 30.8372 8.23042ZM21.1429 42.5926V41.3081H21.1447V24.9262L20.9922 24.9567C17.6789 25.6366 15.2751 28.5984 15.2751 32.0014V42.5908C15.2751 44.2178 16.5918 45.5435 18.2099 45.5435C19.828 45.5435 21.1429 44.2196 21.1429 42.5926ZM46.3992 42.5926V32.0032C46.3992 28.6002 43.9954 25.6384 40.6839 24.9603L40.5314 24.9298V42.5926C40.5314 44.2196 41.8481 45.5435 43.4644 45.5435C45.0825 45.5435 46.3992 44.2196 46.3992 42.5926Z" fill="#BDDCF2"/>
<path d="M30.8372 8.10126C30.0622 8.10126 29.4343 8.73271 29.4343 9.51306V21.7492C29.4343 22.5296 30.0622 23.1628 30.8372 23.1628C31.6121 23.1628 32.2418 22.5314 32.2418 21.7492V9.51306C32.24 8.73271 31.6103 8.10126 30.8372 8.10126Z" fill="#1D1D1B"/>
<path d="M40.6588 22.2228V9.88259C40.6588 4.43273 36.253 0 30.8372 0C25.4214 0 21.0156 4.43273 21.0156 9.88259C21.0156 9.88618 21.0174 9.88977 21.0174 9.89156V22.221C16.2617 22.9099 12.5968 27.0323 12.5968 32.0032V42.5926C12.5968 45.7068 15.1154 48.2398 18.2081 48.2398C21.2972 48.2398 23.8087 45.7175 23.8212 42.6105C23.8212 42.6051 23.823 42.5979 23.823 42.5926V41.5629L29.5545 54.6117C29.5779 54.6691 29.6084 54.7193 29.6389 54.7714C29.6442 54.7785 29.646 54.7875 29.6514 54.7965C29.6945 54.8664 29.7465 54.9292 29.8003 54.9884C29.8147 55.0081 29.8326 55.0225 29.8505 55.0404C29.8936 55.0835 29.9402 55.123 29.9887 55.1606C30.0084 55.1768 30.0263 55.1911 30.0479 55.2037C30.1142 55.2503 30.186 55.2934 30.2631 55.3275C30.2649 55.3275 30.2667 55.3293 30.2703 55.331C30.2793 55.3346 30.2882 55.3364 30.299 55.34C30.369 55.3687 30.4407 55.392 30.5143 55.41C30.5376 55.4154 30.5627 55.4207 30.5842 55.4243C30.665 55.4405 30.7493 55.4512 30.8318 55.4512C30.8336 55.4512 30.8354 55.4512 30.8354 55.4512C30.8354 55.4512 30.8354 55.4512 30.8372 55.4512C30.839 55.4512 30.8372 55.4512 30.839 55.4512C30.8408 55.4512 30.8408 55.4512 30.8426 55.4512C30.9251 55.4512 31.0094 55.4405 31.0901 55.4243C31.1134 55.4207 31.1368 55.4154 31.1601 55.41C31.2336 55.392 31.3054 55.3687 31.3771 55.34C31.3861 55.3364 31.3951 55.3346 31.404 55.331C31.4076 55.3293 31.4094 55.3275 31.413 55.3275C31.4884 55.2934 31.5583 55.2503 31.6283 55.2037C31.648 55.1911 31.6678 55.175 31.6875 55.1588C31.7359 55.1212 31.7826 55.0817 31.8256 55.0386C31.8436 55.0207 31.8615 55.0064 31.8758 54.9884C31.9297 54.9292 31.9817 54.8646 32.0247 54.7947C32.0301 54.7875 32.0319 54.7785 32.0373 54.7696C32.0678 54.7193 32.0983 54.6673 32.1216 54.6099L37.8549 41.5593V42.589C37.8549 45.705 40.3718 48.2362 43.4662 48.2362C46.5607 48.2362 49.0776 45.7032 49.0776 42.589V31.9996C49.0776 27.0323 45.4108 22.9099 40.6588 22.2228ZM21.0156 30.1106C21.0156 30.1142 21.0138 30.1178 21.0138 30.1196V33.18C21.0138 33.1907 21.0156 33.2033 21.0156 33.2159V41.179H21.0138V42.5926C21.0138 44.1479 19.7563 45.4162 18.2081 45.4162C16.6618 45.4162 15.4025 44.1479 15.4025 42.5926V32.0032C15.4025 28.593 17.8171 25.7407 21.0156 25.0841V30.1106ZM30.8372 50.5485L27.2476 42.3755C28.3598 42.8168 29.5707 43.0626 30.8372 43.0626C32.1037 43.0626 33.3146 42.8168 34.4268 42.3755L30.8372 50.5485ZM37.8513 30.1196V33.18C37.8513 37.0727 34.7048 40.239 30.8354 40.239C26.9731 40.239 23.832 37.0817 23.8212 33.1979V9.88259C23.8212 9.8808 23.8212 9.87901 23.8212 9.87721C23.8248 5.98624 26.9695 2.8236 30.8372 2.8236C34.7066 2.8236 37.8531 5.98983 37.8531 9.88259V30.1196H37.8513ZM46.2701 41.179V42.5926C46.2701 44.1479 45.0126 45.4162 43.4644 45.4162C41.9181 45.4162 40.6588 44.1479 40.6588 42.5926V25.0841C43.8573 25.7407 46.2701 28.593 46.2701 32.0014V41.179Z" fill="#1D1D1B"/>
<path d="M5.85529 64.8583C6.25174 65.0072 6.55312 65.2458 6.75942 65.5759C6.96392 65.9059 7.06797 66.2557 7.06797 66.6235C7.06797 67.3608 6.78453 67.9438 6.22125 68.3743C5.65617 68.8049 4.83097 69.0201 3.74566 69.0201H0V60.9619H3.36536C4.44528 60.9619 5.26868 61.1808 5.83376 61.6149C6.39705 62.0508 6.68048 62.6374 6.68048 63.3729C6.68048 63.6743 6.61052 63.9757 6.47239 64.2771C6.33785 64.5749 6.13155 64.7686 5.85529 64.8583ZM2.12398 64.3058H3.36536C4.15467 64.3058 4.54933 64.0313 4.54933 63.4806C4.54933 63.2079 4.4417 62.9908 4.22643 62.8276C4.01116 62.6661 3.72414 62.5836 3.36536 62.5836H2.12398V64.3058ZM3.76001 67.3913C4.55292 67.3913 4.95116 67.1168 4.95116 66.5661C4.95116 66.2844 4.85071 66.0907 4.64979 65.9849C4.45246 65.8808 4.15647 65.827 3.76001 65.827H2.12398V67.3913H3.76001Z" fill="black"/>
<path d="M11.5487 69.1062C10.1423 69.1062 9.06234 68.6434 8.31249 67.7142C7.70435 66.9679 7.40118 66.0853 7.40118 65.0664C7.40118 63.9811 7.70435 63.0429 8.31249 62.2535C9.06234 61.292 10.1423 60.8112 11.5487 60.8112C12.9443 60.8112 14.0279 61.292 14.7992 62.2535C15.3966 63.0285 15.6962 63.9667 15.6962 65.0664C15.6962 66.0961 15.3966 66.9787 14.7992 67.7142C14.0279 68.6434 12.9443 69.1062 11.5487 69.1062ZM10.0633 66.8172C10.4257 67.2585 10.919 67.4774 11.5415 67.4774C12.1676 67.4774 12.6627 67.2585 13.0269 66.8172C13.3892 66.3777 13.5722 65.7947 13.5722 65.0664C13.5722 64.2968 13.3928 63.6653 13.034 63.172C12.6752 62.6805 12.1765 62.4329 11.5415 62.4329C10.9101 62.4329 10.4149 62.6805 10.0562 63.172C9.70096 63.6653 9.52516 64.2968 9.52516 65.0664C9.52516 65.7947 9.70455 66.3777 10.0633 66.8172Z" fill="black"/>
<path d="M20.3109 69.1062C18.9045 69.1062 17.8246 68.6434 17.0748 67.7142C16.4666 66.9679 16.1635 66.0853 16.1635 65.0664C16.1635 63.9811 16.4666 63.0429 17.0748 62.2535C17.8246 61.292 18.9045 60.8112 20.3109 60.8112C21.7066 60.8112 22.7901 61.292 23.5615 62.2535C24.1589 63.0285 24.4584 63.9667 24.4584 65.0664C24.4584 66.0961 24.1589 66.9787 23.5615 67.7142C22.7901 68.6434 21.7066 69.1062 20.3109 69.1062ZM18.8256 66.8172C19.188 67.2585 19.6813 67.4774 20.3038 67.4774C20.9298 67.4774 21.425 67.2585 21.7891 66.8172C22.1515 66.3777 22.3345 65.7947 22.3345 65.0664C22.3345 64.2968 22.1551 63.6653 21.7963 63.172C21.4375 62.6805 20.9388 62.4329 20.3038 62.4329C19.6723 62.4329 19.1772 62.6805 18.8184 63.172C18.4632 63.6653 18.2874 64.2968 18.2874 65.0664C18.2874 65.7947 18.4668 66.3777 18.8256 66.8172Z" fill="black"/>
<path d="M32.5031 66.3221C32.5031 67.2029 32.2448 67.872 31.7282 68.3313C31.1398 68.8479 30.1944 69.1062 28.8938 69.1062C27.8641 69.1062 26.9923 68.9089 26.2747 68.5107C25.5572 68.1142 25.1284 67.4899 24.9903 66.6378H27.4444C27.5018 67.1975 27.9897 67.4774 28.9082 67.4774C29.4679 67.4774 29.8518 67.4182 30.0634 67.298C30.2733 67.1796 30.3792 66.9679 30.3792 66.6665C30.3792 66.5804 30.3469 66.5015 30.2859 66.4297C30.2285 66.358 30.137 66.297 30.0132 66.2432C29.8876 66.1858 29.7639 66.1337 29.6401 66.0853C29.5199 66.0387 29.3602 65.992 29.1593 65.949C28.962 65.9023 28.797 65.8665 28.6642 65.8413C28.5297 65.8126 28.3557 65.7804 28.1404 65.7409C27.9251 65.7032 27.7762 65.6763 27.6955 65.662C27.2165 65.5758 26.7842 65.4467 26.3967 65.2745C25.4675 64.878 25.0046 64.2663 25.0046 63.4375C25.0046 62.6051 25.2576 61.9719 25.7653 61.536C26.3339 61.0534 27.2721 60.8112 28.5781 60.8112C29.5863 60.8112 30.4599 61.0319 31.1972 61.4714C31.9381 61.9127 32.3094 62.5226 32.3094 63.3012H29.841C29.7979 62.7235 29.3818 62.4329 28.5924 62.4329C28.1368 62.4329 27.778 62.4939 27.5161 62.6123C27.2578 62.7325 27.1286 62.8706 27.1286 63.0285C27.1286 63.1397 27.1663 63.2438 27.2434 63.3442C27.3242 63.4447 27.4479 63.5362 27.6166 63.6169C27.7888 63.694 27.9466 63.7604 28.0902 63.8178C28.2373 63.8716 28.4418 63.929 28.7001 63.99C28.9584 64.0474 29.1486 64.0887 29.2741 64.112C29.3979 64.1318 29.5773 64.1658 29.8123 64.2125C30.2715 64.304 30.7039 64.4278 31.1111 64.5856C32.0385 64.9587 32.5031 65.5382 32.5031 66.3221Z" fill="black"/>
<path d="M37.2812 69.0201H35.1644V62.5836H32.8323V60.9619H39.6133V62.5836H37.2812V69.0201Z" fill="black"/>
<path d="M40.1466 60.9619H46.2243V62.5836H42.2706V64.1981H45.27V65.8485H42.2706V67.3913H46.2243V69.0201H40.1466V60.9619Z" fill="black"/>
<path d="M54.0242 63.8107C54.0242 64.2807 53.9022 64.7435 53.6582 65.2027C53.4143 65.662 53.0573 66.0351 52.5891 66.3221L53.8735 69.0201H51.5271L50.4292 66.6809H49.1591V69.0201H47.0352V60.9619H50.7808C51.8464 60.9619 52.6537 61.2346 53.199 61.78C53.7479 62.3253 54.0242 63.0034 54.0242 63.8107ZM49.1591 65.0664H50.6875C51.0463 65.0664 51.3405 64.9552 51.5701 64.7291C51.7998 64.5049 51.9146 64.2035 51.9146 63.825C51.9146 63.4483 51.7998 63.1469 51.5701 62.9209C51.3405 62.6966 51.0463 62.5836 50.6875 62.5836H49.1591V65.0664Z" fill="black"/>
<path d="M62 66.3221C62 67.2029 61.7417 67.872 61.225 68.3313C60.6366 68.8479 59.6913 69.1062 58.3907 69.1062C57.361 69.1062 56.4891 68.9089 55.7716 68.5107C55.054 68.1142 54.6253 67.4899 54.4872 66.6378H56.9412C56.9986 67.1975 57.4866 67.4774 58.405 67.4774C58.9647 67.4774 59.3486 67.4182 59.5603 67.298C59.7702 67.1796 59.876 66.9679 59.876 66.6665C59.876 66.5804 59.8437 66.5015 59.7827 66.4297C59.7253 66.358 59.6339 66.297 59.5101 66.2432C59.3845 66.1858 59.2607 66.1337 59.1369 66.0853C59.0167 66.0387 58.8571 65.992 58.6562 65.949C58.4588 65.9023 58.2938 65.8665 58.1611 65.8413C58.0265 65.8126 57.8525 65.7804 57.6372 65.7409C57.422 65.7032 57.2731 65.6763 57.1924 65.662C56.7134 65.5758 56.2811 65.4467 55.8936 65.2745C54.9643 64.878 54.5015 64.2663 54.5015 63.4375C54.5015 62.6051 54.7544 61.9719 55.2621 61.536C55.8308 61.0534 56.769 60.8112 58.075 60.8112C59.0831 60.8112 59.9568 61.0319 60.694 61.4714C61.4349 61.9127 61.8063 62.5226 61.8063 63.3012H59.3379C59.2948 62.7235 58.8786 62.4329 58.0893 62.4329C57.6337 62.4329 57.2749 62.4939 57.013 62.6123C56.7546 62.7325 56.6255 62.8706 56.6255 63.0285C56.6255 63.1397 56.6632 63.2438 56.7403 63.3442C56.821 63.4447 56.9448 63.5362 57.1134 63.6169C57.2856 63.694 57.4435 63.7604 57.587 63.8178C57.7341 63.8716 57.9386 63.929 58.1969 63.99C58.4553 64.0474 58.6454 64.0887 58.771 64.112C58.8948 64.1318 59.0742 64.1658 59.3092 64.2125C59.7684 64.304 60.2007 64.4278 60.6079 64.5856C61.5354 64.9587 62 65.5382 62 66.3221Z" fill="black"/>
</svg>
